<mxfile host="Electron" modified="2024-04-12T08:01:03.984Z" agent="Mozilla/5.0 (Windows NT 10.0; Win64; x64) AppleWebKit/537.36 (KHTML, like Gecko) draw.io/24.1.0 Chrome/120.0.6099.109 Electron/28.1.0 Safari/537.36" etag="eAe-gHvnctDorUFlATox" version="24.1.0" type="device">
  <diagram name="Page-1" id="Wn5tr7XZrIVLodjelaHo">
    <mxGraphModel dx="521" dy="621" grid="1" gridSize="10" guides="1" tooltips="1" connect="1" arrows="1" fold="1" page="1" pageScale="1" pageWidth="850" pageHeight="1100" math="0" shadow="0">
      <root>
        <mxCell id="0" />
        <mxCell id="1" parent="0" />
        <mxCell id="jhCJp_KmLSD-4mkhA_Fq-4" style="edgeStyle=orthogonalEdgeStyle;rounded=0;orthogonalLoop=1;jettySize=auto;html=1;exitX=0.5;exitY=1;exitDx=0;exitDy=0;" edge="1" parent="1" source="jhCJp_KmLSD-4mkhA_Fq-1" target="jhCJp_KmLSD-4mkhA_Fq-2">
          <mxGeometry relative="1" as="geometry" />
        </mxCell>
        <mxCell id="jhCJp_KmLSD-4mkhA_Fq-1" value="" style="ellipse;fillColor=strokeColor;html=1;" vertex="1" parent="1">
          <mxGeometry x="80" y="60" width="30" height="30" as="geometry" />
        </mxCell>
        <mxCell id="jhCJp_KmLSD-4mkhA_Fq-2" value="Enter Patient Information" style="swimlane;childLayout=stackLayout;horizontal=1;startSize=50;horizontalStack=0;rounded=1;fontSize=14;fontStyle=0;strokeWidth=2;resizeParent=0;resizeLast=1;shadow=0;dashed=0;align=center;arcSize=4;whiteSpace=wrap;html=1;" vertex="1" parent="1">
          <mxGeometry x="35" y="160" width="120" height="130" as="geometry" />
        </mxCell>
        <mxCell id="jhCJp_KmLSD-4mkhA_Fq-3" value="+Patient&lt;div&gt;+Doctor&lt;br&gt;+Insurance Company&lt;/div&gt;" style="align=left;strokeColor=none;fillColor=none;spacingLeft=4;fontSize=12;verticalAlign=top;resizable=0;rotatable=0;part=1;html=1;" vertex="1" parent="jhCJp_KmLSD-4mkhA_Fq-2">
          <mxGeometry y="50" width="120" height="80" as="geometry" />
        </mxCell>
        <mxCell id="jhCJp_KmLSD-4mkhA_Fq-5" value="Insurance" style="swimlane;childLayout=stackLayout;horizontal=1;startSize=50;horizontalStack=0;rounded=1;fontSize=14;fontStyle=0;strokeWidth=2;resizeParent=0;resizeLast=1;shadow=0;dashed=0;align=center;arcSize=4;whiteSpace=wrap;html=1;" vertex="1" parent="1">
          <mxGeometry x="280" y="70" width="160" height="120" as="geometry" />
        </mxCell>
        <mxCell id="jhCJp_KmLSD-4mkhA_Fq-6" value="+PatientId&lt;br&gt;+Insurance Company&lt;div&gt;&lt;br/&gt;&lt;/div&gt;" style="align=left;strokeColor=none;fillColor=none;spacingLeft=4;fontSize=12;verticalAlign=top;resizable=0;rotatable=0;part=1;html=1;" vertex="1" parent="jhCJp_KmLSD-4mkhA_Fq-5">
          <mxGeometry y="50" width="160" height="70" as="geometry" />
        </mxCell>
        <mxCell id="jhCJp_KmLSD-4mkhA_Fq-8" style="edgeStyle=orthogonalEdgeStyle;rounded=0;orthogonalLoop=1;jettySize=auto;html=1;exitX=1;exitY=0.25;exitDx=0;exitDy=0;entryX=0;entryY=0.25;entryDx=0;entryDy=0;" edge="1" parent="1" source="jhCJp_KmLSD-4mkhA_Fq-3" target="jhCJp_KmLSD-4mkhA_Fq-5">
          <mxGeometry relative="1" as="geometry" />
        </mxCell>
        <mxCell id="jhCJp_KmLSD-4mkhA_Fq-9" value="Assign Room" style="swimlane;childLayout=stackLayout;horizontal=1;startSize=50;horizontalStack=0;rounded=1;fontSize=14;fontStyle=0;strokeWidth=2;resizeParent=0;resizeLast=1;shadow=0;dashed=0;align=center;arcSize=4;whiteSpace=wrap;html=1;" vertex="1" parent="1">
          <mxGeometry x="15" y="470" width="160" height="120" as="geometry" />
        </mxCell>
        <mxCell id="jhCJp_KmLSD-4mkhA_Fq-10" value="+PatientId&lt;br&gt;+RoomId&lt;div&gt;&lt;br/&gt;&lt;/div&gt;" style="align=left;strokeColor=none;fillColor=none;spacingLeft=4;fontSize=12;verticalAlign=top;resizable=0;rotatable=0;part=1;html=1;" vertex="1" parent="jhCJp_KmLSD-4mkhA_Fq-9">
          <mxGeometry y="50" width="160" height="70" as="geometry" />
        </mxCell>
        <mxCell id="jhCJp_KmLSD-4mkhA_Fq-13" style="edgeStyle=orthogonalEdgeStyle;rounded=0;orthogonalLoop=1;jettySize=auto;html=1;exitX=0.5;exitY=1;exitDx=0;exitDy=0;entryX=0.5;entryY=0;entryDx=0;entryDy=0;" edge="1" parent="1" source="jhCJp_KmLSD-4mkhA_Fq-6" target="jhCJp_KmLSD-4mkhA_Fq-9">
          <mxGeometry relative="1" as="geometry" />
        </mxCell>
        <mxCell id="jhCJp_KmLSD-4mkhA_Fq-14" style="edgeStyle=orthogonalEdgeStyle;rounded=0;orthogonalLoop=1;jettySize=auto;html=1;exitX=0.5;exitY=1;exitDx=0;exitDy=0;entryX=0.5;entryY=0;entryDx=0;entryDy=0;" edge="1" parent="1" source="jhCJp_KmLSD-4mkhA_Fq-3" target="jhCJp_KmLSD-4mkhA_Fq-9">
          <mxGeometry relative="1" as="geometry">
            <mxPoint x="90" y="500" as="targetPoint" />
          </mxGeometry>
        </mxCell>
        <mxCell id="jhCJp_KmLSD-4mkhA_Fq-15" value="Print Admission" style="swimlane;childLayout=stackLayout;horizontal=1;startSize=50;horizontalStack=0;rounded=1;fontSize=14;fontStyle=0;strokeWidth=2;resizeParent=0;resizeLast=1;shadow=0;dashed=0;align=center;arcSize=4;whiteSpace=wrap;html=1;" vertex="1" parent="1">
          <mxGeometry x="265" y="450" width="160" height="120" as="geometry" />
        </mxCell>
        <mxCell id="jhCJp_KmLSD-4mkhA_Fq-16" value="+PatientId&lt;br&gt;+RoomId&lt;br&gt;+InsuranceID" style="align=left;strokeColor=none;fillColor=none;spacingLeft=4;fontSize=12;verticalAlign=top;resizable=0;rotatable=0;part=1;html=1;" vertex="1" parent="jhCJp_KmLSD-4mkhA_Fq-15">
          <mxGeometry y="50" width="160" height="70" as="geometry" />
        </mxCell>
        <mxCell id="jhCJp_KmLSD-4mkhA_Fq-17" style="edgeStyle=orthogonalEdgeStyle;rounded=0;orthogonalLoop=1;jettySize=auto;html=1;exitX=1;exitY=0.25;exitDx=0;exitDy=0;entryX=0.5;entryY=0;entryDx=0;entryDy=0;" edge="1" parent="1" source="jhCJp_KmLSD-4mkhA_Fq-10" target="jhCJp_KmLSD-4mkhA_Fq-15">
          <mxGeometry relative="1" as="geometry" />
        </mxCell>
        <mxCell id="jhCJp_KmLSD-4mkhA_Fq-18" value="" style="ellipse;html=1;shape=endState;fillColor=#000000;strokeColor=#ff0000;" vertex="1" parent="1">
          <mxGeometry x="330" y="630" width="30" height="30" as="geometry" />
        </mxCell>
        <mxCell id="jhCJp_KmLSD-4mkhA_Fq-19" style="edgeStyle=orthogonalEdgeStyle;rounded=0;orthogonalLoop=1;jettySize=auto;html=1;exitX=0.5;exitY=1;exitDx=0;exitDy=0;" edge="1" parent="1" source="jhCJp_KmLSD-4mkhA_Fq-16" target="jhCJp_KmLSD-4mkhA_Fq-18">
          <mxGeometry relative="1" as="geometry" />
        </mxCell>
      </root>
    </mxGraphModel>
  </diagram>
</mxfile>
